<svg xmlns="http://www.w3.org/2000/svg" viewBox="0 0 842.3 150.29"><defs><style>.cls-1{fill:#ed7326;fill-rule:evenodd;}.cls-2{fill:#2f2e63;}</style></defs><g id="Ebene_2" data-name="Ebene 2"><g id="Ebene_1-2" data-name="Ebene 1"><g id="Ebene_2-2" data-name="Ebene 2"><g id="Ebene_1-2-2" data-name="Ebene 1-2"><path class="cls-1" d="M461.35,66.46c1.17,1.88,20.68,34.78,20.68,34.78l-63.77,1.25a30.6,30.6,0,0,1-27-15.2c-14.32-24.64-40.74-70-40.74-70l70.29,6.4a26.68,26.68,0,0,1,19.66,11.61C447.68,46,458.24,61.46,461.35,66.46Z"/><path class="cls-2" d="M359.92,5.78l12.92,27.08c16,0,31.78.17,47.17-.32,9.4-.29,18.72-.85,27.86-1.88a35.43,35.43,0,0,0-22.09-13.41Zm90.95,29.56c-10.05,1.19-20.3,1.82-30.73,2.15-14.68.46-29.69.32-44.95.32l9.36,19.56c17.21,0,32.79.2,47.6-.48A241,241,0,0,0,461.4,54C458.14,48.17,454.31,41.39,450.87,35.34Zm68.88,38.54,5.11,2.53a2.62,2.62,0,1,0,2.32-4.7l-5.12-2.54a2.62,2.62,0,1,0-2.31,4.7h0ZM464,58.57a240.77,240.77,0,0,1-31.59,3.29c-14.18.64-29.14.49-45.45.48l5.78,12.12a40.25,40.25,0,0,0,4.6,7.46c29.23,0,49.14.63,69.35-3.5,2.21-.45,4.43-.94,6.67-1.55l-5.23-10.78C467.19,64.46,465.74,61.8,464,58.57Zm78.38,24.34-10.45,1.72L539.51,90A17.72,17.72,0,0,1,542,91.74l2.23,1.56,1.51-2.67a2.41,2.41,0,0,0-.06-2.46Zm-66.73-1.5c-2.65.71-5.27,1.32-7.9,1.88-19.42,4-38.59,3.64-65.79,3.61A41.09,41.09,0,0,0,427.3,97.79l58.06,3.63ZM205.84,71.68c12.45,0,19.51,5.24,19.51,16.63,0,5.12-2,9.7-6.14,12.22-1.58.94-4.2,1.57-10.62,1.57-3.67,0-6.68-.13-8.13-.26a.83.83,0,0,1-.65-.66c0-9.3.27-23.19.39-27a3,3,0,0,1,1.05-2.1,25.54,25.54,0,0,1,4.53-.42Zm-177-.13c14,0,20.3,7.2,20.3,19.52,0,8.51-4.32,13.23-8.52,15.2-2.48,1-8.12,1.3-16.91,1a.69.69,0,0,1-.65-.65c0-10.23,0-28,.25-32.49a3.08,3.08,0,0,1,.94-2A14.57,14.57,0,0,1,28.79,71.55Zm257.7,9.32c2.09,5.64,7.07,20.17,9.69,28.29a.74.74,0,0,1-.28,1l-.12,0c-1.3.14-5.64.14-8.77.14-5,0-9.17,0-10.49-.14-.38-.13-.51-.39-.51-.94,2.22-6.93,7.59-21.74,9.82-28.29C286,80.72,286.35,80.87,286.49,80.87ZM538.24,71c-2.64-1.44-13.12-5.45-20.54-9.54a36.87,36.87,0,0,1-6.09-4,9.2,9.2,0,0,1-2.49-3.12,2.48,2.48,0,1,1,4.55-2,4.33,4.33,0,0,0,1.18,1.34,31.88,31.88,0,0,0,5.24,3.42c7.42,4.1,17.85,8.1,20.52,9.54a7.25,7.25,0,0,1,2.28,1.88,7.59,7.59,0,0,1,1.32,2.67c.24.86.52,2.16.79,3.49.37,1.83.71,3.76.86,4.6l4,6.27a7.33,7.33,0,0,1,.18,7.52l-6.31,11.19a2.47,2.47,0,1,1-4.31-2.42h0l2.36-4.18-4.9-3.47a13.74,13.74,0,0,0-1.81-.88,12.77,12.77,0,0,0-4.32-.94c-4.64-.08-8.24.6-11,2.45s-4.54,4.92-5.72,9.28l-3.76,12.71a2.47,2.47,0,0,0,1.3,2.92l14.58,6.79a2.48,2.48,0,0,1-2,4.52l-14.7-6.88a7.44,7.44,0,0,1-3.88-8.76l3.7-12.65c1.55-5.71,4.08-9.6,7.72-12.06a20.87,20.87,0,0,1,10.46-3.2h0A4.15,4.15,0,0,1,529.17,80l11.5-1.88c-.14-.77-.31-1.63-.48-2.49-.24-1.2-.49-2.37-.7-3.15a2.58,2.58,0,0,0-.46-.94,2.53,2.53,0,0,0-.79-.58ZM414.89,131.16l-16.53-1.4-26.27,8.75,3.29,3.71a1.75,1.75,0,0,0,.78.5,1.87,1.87,0,0,0,.94,0ZM213.25,143.73c-3,0-7.86-.38-10.09-1.83a7.72,7.72,0,0,1-3-5c-.39-5.38-.39-21.37-.39-29.62,0-.26.39-.52.66-.52a42.6,42.6,0,0,1,6.29-.26c14.8,0,23.71,6.81,23.71,19.26C230.41,138,223.7,143.73,213.25,143.73Zm-84.6.79a29.29,29.29,0,0,1-16.41-4.44c-11.53-7.47-16.63-22.39-16.63-36.15,0-13.37,4.44-25.16,14-30.8a23.79,23.79,0,0,1,11.79-2.87,29.37,29.37,0,0,1,17.16,5.23c10.34,7.21,15,20.83,15,35,0,12-2.88,22.92-11,29.47-3.37,2.87-8.48,4.57-14,4.57Zm575.34,0a29.32,29.32,0,0,1-16.41-4.44c-11.53-7.47-16.64-22.39-16.64-36.15,0-13.37,4.46-25.16,14-30.8a23.79,23.79,0,0,1,11.79-2.87,29.4,29.4,0,0,1,17.17,5.23c10.34,7.21,15,20.83,15,35,0,12-2.88,22.92-11,29.47-3.4,2.87-8.5,4.57-14,4.57ZM388.19,76.59l-34.78-73a2.48,2.48,0,0,1,1.1-3.32A2.52,2.52,0,0,1,356,0l70.54,12.29a40.38,40.38,0,0,1,28.34,20.11c4.05,7.13,8.73,15.39,12.33,21.88,2.31,4.12,4.18,7.52,5.19,9.51l5.72,11.7a172.9,172.9,0,0,0,27.36-11,78.29,78.29,0,0,1-10.25-4.47c-3-1.67-5.22-3.68-6.13-5.78a2.48,2.48,0,0,1,4.56-2,5.37,5.37,0,0,0,1.63,1.88,23.66,23.66,0,0,0,4.29,2.57c4.82,2.34,10.6,4.12,13,5.4l.39.27.34.34.21.31.06.11a2.22,2.22,0,0,1,.27.94v.51a2.4,2.4,0,0,1-.29.94l-.26.39-.35.35-.31.2-.11.07a187.44,187.44,0,0,1-32.17,13.5l11.28,23a2.49,2.49,0,0,1-1.14,3.32,2.55,2.55,0,0,1-1.24.24l-53.82-3.35-68.62,24a2.53,2.53,0,0,0-1,.69,2.45,2.45,0,0,0-.6,1.08,2.84,2.84,0,0,0,0,1.23,2.66,2.66,0,0,0,.57,1.09l2.74,3.09L397,125a2.52,2.52,0,0,1,1.21-.21l123.64,10.47a2.48,2.48,0,1,1-.42,4.94h0l-93.29-7.9-49.62,15.15a6.64,6.64,0,0,1-6.87-1.92l-9.6-10.85a7.49,7.49,0,0,1,3.13-12l57.86-20.25A46,46,0,0,1,388.19,76.59ZM245.48,144.52c-.53.53-.53,3.27,0,3.76,2.49,0,6.58-.39,14-.39s14,.39,16.77.39c.38-.53.65-3.27.25-3.76a48.27,48.27,0,0,1-6.29-1.05c-4.06-1-4.31-2.49-4.19-4.7.27-3.15,4.46-14.16,7.08-21.23.13-.39.79-1.18,1.31-1.18,1.58-.13,2.49,0,10.87,0,5.9,0,10.48-.13,12.31,0a1.94,1.94,0,0,1,1.19.94c2.36,5.89,6.29,16.92,7.86,22.56a2.41,2.41,0,0,1-1.25,3.19l-.19.08a41.31,41.31,0,0,1-7.21,1.45c-.52.52-.25,3.27.13,3.76,2.76-.13,10.74-.4,17.16-.4,5.9,0,12.59.27,16,.4.4-.53.78-3.41.26-3.76-9.4-1.18-10.34-1.84-14.15-10.61-4.59-10.88-19.13-52.41-21.75-59.88a68.5,68.5,0,0,1-2.09-6.81c-.39,0-1.71.13-4.33.13-2.22,0-3.76-.13-4.32-.13a41.08,41.08,0,0,1-2.22,7.52c-2.89,8.38-15.2,41.79-21.88,57.64C256.48,142.43,254.91,143.35,245.48,144.52ZM.35,70.63c2.63.27,5.12.65,7.08,1.05,3.27.79,4.19,2.36,4.33,6,.13,4.06.13,17.17.13,30.53,0,7.2-.13,25-.27,28-.26,5-1.31,6.58-4.45,7.2-1.7.39-3.76.66-6.68,1.05-.65.53-.65,3.27,0,3.76,2.49,0,8.12-.39,16.63-.39s14.94.39,17.43.39c.66-.53.94-3.27.26-3.76-3-.39-5.37-.79-7.34-1.17-3-.66-3.93-1.88-4.19-6.3S23,120.54,23,113.34c0-.13.25-.79.51-.79,1.88,0,7.52-.13,9.31.14a4.26,4.26,0,0,1,3.27,2c5,7.08,13,20.17,18,26.07A18,18,0,0,0,60.36,146c4.85,2.36,15.33,2.75,21,2.49.79-.26,1.05-3.27.79-3.67-7.87-1.05-9.7-1.71-15-7.2-6.42-6.58-16.77-21-21.35-28.31a.85.85,0,0,1,.26-.94c7.86-3.53,14.93-10.09,14.93-21.09S52.79,67.06,37.42,67.06c-5.25,0-12,.27-21.75.27-4.06,0-11.92-.4-15-.4C.09,67.22-.16,70.11.35,70.63Zm750.24,0c5.12.52,8,1.18,10.48,2.88a7.06,7.06,0,0,1,3.55,6.42c-.27,27.51-.66,48.88-1.19,55.68-.25,5.11-2,6.82-5,7.74a40.85,40.85,0,0,1-7,1.17c-.39.4-.39,3.4,0,3.76,2.76,0,7.73-.39,15.73-.39,7.33,0,13.23.39,16.37.39.4-.53.79-3.27.26-3.76a44.37,44.37,0,0,1-7.85-1.31c-3.41-.78-5.12-2.62-5.38-7.86-.39-7.33-.39-38-.13-51.49,0-.12.39-.26.53-.12,7.85,9.82,43.88,54.89,50.83,64.85,1.57-.13,7.59-.13,9,0-.13-4.32-.26-11.93-.26-18,.39-24.76.26-41.53,1-51.61.26-3.55,1-5.91,4.45-7.08a42,42,0,0,1,5.78-1.31c.51-.52.51-3.28,0-3.67-1.72,0-9.4.39-13.9.39-8,0-14-.39-17.42-.39-.4.39-.53,3.15,0,3.67a56.88,56.88,0,0,1,8.78,1.57c3.92,1.05,4.7,3.14,5,7,.65,9.4.51,33.93.51,51.87a.37.37,0,0,1-.51.14h0c-6.29-7.34-33.15-40.08-46.51-56.85-3.41-4.32-4.19-5.76-4.7-7.08-1,.13-3.28.13-5.89.13-6.58,0-13.11-.39-16.39-.39C750.34,67.35,750.2,70.24,750.59,70.63Zm-573.11,0a55.6,55.6,0,0,1,7.6,1.18c2.23.66,3.41,1.88,3.54,5.51.26,4.84.13,13.35.13,29.73,0,14,0,25.54-.26,29.75-.39,4.69-1.31,5.89-4.19,6.67-2.23.52-6,.79-8.39,1.05-.65.4-.52,3.4.14,3.76,8.64-.26,24,.4,29.87.4,6.93,0,14.27-.66,20.3-3.28,9.95-4.33,16.37-11.66,16.37-22.56,0-11.53-8.25-17.86-18.47-20.18a.27.27,0,0,1,0-.52c7.6-3.15,12.71-9.31,12.71-16.77,0-15.46-14.15-18.35-23.06-18.35-8.51,0-13.49.27-21.09.27s-12.06-.4-15-.4c-.55.33-.68,3.35-.16,3.74Zm353.78,63.73.33-11.47a7.1,7.1,0,0,1,1-3.5,7.35,7.35,0,0,1,9.65-2.85L540,121a2.36,2.36,0,0,0-1.16-.27,2.52,2.52,0,0,0-1.14.34,2.47,2.47,0,0,0-.85.85,2.55,2.55,0,0,0-.33,1.14l-.15,5.6,1-1.16a7.24,7.24,0,0,1,3-2,7.43,7.43,0,0,1,3.65-.32,7.31,7.31,0,0,1,5.57,4.37l-4.51,1.94a2.41,2.41,0,0,0-3-1.32,2.33,2.33,0,0,0-.94.66l-11.28,12.61a1.12,1.12,0,0,0-.3.64,1.23,1.23,0,0,0,.64,1.2,1.33,1.33,0,0,0,.71.11h0l.73,4.9h0a6.15,6.15,0,0,1-5.49-10.15Zm108-46.31c.13.66,3.53.26,4.06-.25a170.82,170.82,0,0,1,2.1-20.18c-5.91-.4-14.68-2.63-25.81-2.63S599.93,67.22,593,71c-14.42,7.72-20.84,21.87-20.84,36,0,27.25,16.24,43.23,45.46,43.23a68.51,68.51,0,0,0,20-3.27c3-1.88,8.65-12,10-17.69-.26-.94-2.49-2.09-3.15-2.09-3.4,5.76-6.57,10.21-9.82,12.84-3.28,3-8.78,4.45-14.41,4.45-23.32,0-35-17.69-35-38.65,0-22.13,10.87-36.16,29.87-36.16,6.29,0,11.92.79,16.24,2.89C636.22,75,637.92,77.57,639.24,88.05Zm-515.6,62.23c13.1,0,26.31-5.89,34.45-17.16,5.38-7.46,8-15.72,8-27.26,0-21.35-13.5-40.88-40.23-40.88-13.49,0-27.77,6.69-35,16.64a42,42,0,0,0-8.13,25.29c0,11.79,3.41,22.8,11.28,31.45C100.84,145.72,111.06,150.28,123.64,150.28Zm575.34,0c13.1,0,26.32-5.89,34.45-17.16,5.38-7.46,8-15.72,8-27.26,0-21.35-13.5-40.88-40.22-40.88-13.5,0-27.79,6.69-35,16.64a42,42,0,0,0-8.12,25.29c0,11.79,3.41,22.8,11.28,31.45C676.18,145.72,686.4,150.28,699,150.28Z"/></g></g></g></g></svg>