<svg xmlns="http://www.w3.org/2000/svg" viewBox="0 0 200.49 150.29"><defs><style>.cls-1{fill:#ed7326;fill-rule:evenodd;}.cls-2{fill:#2f2e63;}</style></defs><g id="Ebene_2" data-name="Ebene 2"><g id="Ebene_1-2" data-name="Ebene 1"><g id="Ebene_2-2" data-name="Ebene 2"><g id="Ebene_1-2-2" data-name="Ebene 1-2"><path class="cls-1" d="M110.85,66.46c1.18,1.88,20.68,34.78,20.68,34.78l-63.76,1.25a30.59,30.59,0,0,1-27-15.2C26.41,62.65,0,17.33,0,17.33l70.29,6.4A26.66,26.66,0,0,1,89.94,35.34C97.19,46,107.74,61.46,110.85,66.46Z"/><path class="cls-2" d="M9.43,5.78,22.34,32.86c16,0,31.78.17,47.18-.32,9.4-.29,18.71-.85,27.86-1.88A35.48,35.48,0,0,0,75.29,17.25Zm90.94,29.56c-10,1.19-20.3,1.82-30.72,2.15-14.68.46-29.69.32-45,.32l9.36,19.56c17.21,0,32.8.2,47.6-.48A241,241,0,0,0,110.9,54C107.65,48.17,103.81,41.39,100.37,35.34Zm68.88,38.54,5.12,2.53a2.62,2.62,0,1,0,2.32-4.7l-5.13-2.54a2.62,2.62,0,0,0-2.31,4.7h0ZM113.46,58.57a241,241,0,0,1-31.59,3.29c-14.19.64-29.14.49-45.46.48l5.78,12.12a40.83,40.83,0,0,0,4.61,7.46c29.22,0,49.14.63,69.35-3.5,2.21-.45,4.42-.94,6.66-1.55l-5.23-10.78C116.69,64.46,115.24,61.8,113.46,58.57Zm78.38,24.34-10.45,1.72L189,90a17.62,17.62,0,0,1,2.46,1.74l2.24,1.56,1.5-2.67a2.43,2.43,0,0,0-.05-2.46Zm-66.74-1.5c-2.65.71-5.27,1.32-7.89,1.88-19.43,4-38.59,3.64-65.8,3.61A41.22,41.22,0,0,0,76.8,97.79l58.07,3.63ZM187.74,71c-2.63-1.44-13.11-5.45-20.54-9.54a36.87,36.87,0,0,1-6.09-4,9.2,9.2,0,0,1-2.49-3.12,2.48,2.48,0,1,1,4.55-2,4.36,4.36,0,0,0,1.19,1.34,31.79,31.79,0,0,0,5.23,3.42c7.43,4.1,17.86,8.1,20.53,9.54a7.1,7.1,0,0,1,2.27,1.88,7.44,7.44,0,0,1,1.33,2.67c.23.86.52,2.16.79,3.49.36,1.83.7,3.76.85,4.6l4,6.27a7.33,7.33,0,0,1,.18,7.52l-6.31,11.19a2.47,2.47,0,1,1-4.31-2.42h0l2.35-4.18-4.89-3.47a13.86,13.86,0,0,0-1.82-.88,12.77,12.77,0,0,0-4.31-.94c-4.64-.08-8.24.6-11,2.45s-4.55,4.92-5.72,9.28l-3.76,12.71a2.47,2.47,0,0,0,1.29,2.92l14.58,6.79a2.48,2.48,0,0,1-2,4.52l-14.7-6.88a7.44,7.44,0,0,1-3.87-8.76l3.69-12.65c1.55-5.71,4.08-9.6,7.73-12.06a20.83,20.83,0,0,1,10.45-3.2h0A4.16,4.16,0,0,1,178.68,80l11.49-1.88c-.14-.77-.31-1.63-.47-2.49-.25-1.2-.49-2.37-.71-3.15A2.06,2.06,0,0,0,187.74,71ZM64.39,131.16l-16.53-1.4-26.27,8.75,3.3,3.71a1.75,1.75,0,0,0,.78.5,1.87,1.87,0,0,0,.94,0ZM37.69,76.59,2.91,3.58A2.48,2.48,0,0,1,4,.26,2.51,2.51,0,0,1,5.55,0L76.09,12.33a40.42,40.42,0,0,1,28.34,20.11c4,7.13,8.73,15.39,12.33,21.88,2.3,4.12,4.17,7.52,5.19,9.51l5.71,11.7a172.52,172.52,0,0,0,27.36-11,77.58,77.58,0,0,1-10.24-4.47c-3-1.67-5.22-3.68-6.13-5.78a2.48,2.48,0,0,1,4.56-2,5.25,5.25,0,0,0,1.62,1.88,23.4,23.4,0,0,0,4.3,2.57c4.82,2.34,10.59,4.12,13,5.4l.4.27.33.34.22.31.06.11a2.55,2.55,0,0,1,.27.94v.51a2.4,2.4,0,0,1-.29.94l-.27.39-.34.35-.31.2-.12.07a187.34,187.34,0,0,1-32.16,13.5l11.28,23a2.48,2.48,0,0,1-1.15,3.32,2.51,2.51,0,0,1-1.24.24l-53.82-3.35-68.61,24a2.5,2.5,0,0,0-1,.69,2.44,2.44,0,0,0-.59,1.08,2.56,2.56,0,0,0,0,1.23,2.64,2.64,0,0,0,.56,1.09L18,134.48,46.53,125a2.5,2.5,0,0,1,1.21-.21l123.64,10.47a2.48,2.48,0,0,1-.43,4.94h0l-93.28-7.9L28.05,147.44a6.64,6.64,0,0,1-6.87-1.92l-9.61-10.85a7.51,7.51,0,0,1,.09-10,7.65,7.65,0,0,1,3-2l57.86-20.25A46,46,0,0,1,37.69,76.59Zm143.08,57.77.33-11.47a7.09,7.09,0,0,1,1-3.5,7.35,7.35,0,0,1,9.65-2.85L189.52,121a2.37,2.37,0,0,0-1.17-.27,2.56,2.56,0,0,0-1.14.34,2.42,2.42,0,0,0-1.17,2l-.15,5.6,1-1.16a7.21,7.21,0,0,1,3-2,7.42,7.42,0,0,1,3.65-.32,7.3,7.3,0,0,1,5.56,4.37l-4.5,1.94a2.42,2.42,0,0,0-3-1.32,2.47,2.47,0,0,0-.94.66l-11.28,12.61a1.18,1.18,0,0,0-.29.64,1.21,1.21,0,0,0,.13.7,1.23,1.23,0,0,0,.51.5,1.3,1.3,0,0,0,.7.11h0l.74,4.9h0a6.14,6.14,0,0,1-5.49-10.15Z"/></g></g></g></g></svg>